<svg width="130" height="149" viewBox="0 0 130 149" fill="none" xmlns="http://www.w3.org/2000/svg">
<rect x="5" width="120" height="120" rx="22" fill="url(#paint0_linear)" fill-opacity="0.29"/>
<g filter="url(#filter0_d)">
<path d="M72.9968 26C78.3268 26.0002 83.5822 27.2531 88.3389 29.6578C93.0955 32.0624 97.2202 35.5515 100.38 39.8434C103.54 44.1352 105.647 49.1098 106.53 54.3655C107.413 59.6212 107.048 65.011 105.465 70.0998C103.882 75.1887 101.124 79.8341 97.4149 83.6613C93.7056 87.4885 89.1485 90.3902 84.1113 92.1322C79.074 93.8743 73.6978 94.408 68.4163 93.6902C63.1348 92.9724 58.096 91.0232 53.7066 88H25.9994C25.2392 87.9998 24.5075 87.711 23.952 87.1921C23.3966 86.6732 23.0588 85.9628 23.007 85.2045C22.9552 84.4462 23.1932 83.6964 23.6729 83.1068C24.1526 82.5172 24.8383 82.1316 25.5914 82.028L25.9994 82L47.0738 82.004C45.5011 80.1554 44.1305 78.144 42.9854 76.004L33.9803 76C33.2202 75.9998 32.4884 75.711 31.9329 75.1921C31.3775 74.6732 31.0397 73.9628 30.9879 73.2045C30.9361 72.4462 31.1741 71.6964 31.6538 71.1068C32.1335 70.5172 32.8192 70.1316 33.5723 70.028L33.9803 70L40.4891 70.004C39.4942 66.7626 38.9899 63.3906 38.9929 60C38.9929 51.608 42.0333 43.928 47.0698 38H29.9919C29.2317 37.9998 28.5 37.7111 27.9445 37.1921C27.389 36.6732 27.0513 35.9628 26.9994 35.2045C26.9476 34.4462 27.1856 33.6965 27.6653 33.1068C28.1451 32.5172 28.8308 32.1316 29.5838 32.028L29.9919 32H53.7026C59.3729 28.0823 66.1044 25.989 72.9968 26ZM77.6133 68.864C76.2332 69.584 74.661 69.992 72.9968 69.992C71.3486 69.992 69.7964 69.592 68.4243 68.888L64.0398 73.272C66.6001 75.004 69.6844 76.02 73.0088 76.02C76.3452 76.02 79.4415 75 82.0058 73.256L77.6133 68.864ZM57.003 60.012C57.003 63.356 58.0271 66.464 59.7833 69.032L64.1558 64.668C63.3925 63.2291 62.9942 61.6248 62.9957 59.996C62.9957 58.328 63.4077 56.756 64.1318 55.376L59.7673 51.016C57.9601 53.6691 56.9966 56.8021 57.003 60.012ZM86.2703 51.044L81.8898 55.424C82.5939 56.792 82.9939 58.348 82.9939 59.996C82.9939 61.664 82.5859 63.236 81.8618 64.616L86.2543 69.008C87.9985 66.444 89.0146 63.348 89.0146 60.012C89.0146 56.692 88.0025 53.6 86.2703 51.044ZM72.9968 56C72.4569 55.9759 71.9178 56.0613 71.4118 56.2512C70.9059 56.4412 70.4437 56.7316 70.0532 57.1051C69.6626 57.4785 69.3517 57.9272 69.1394 58.4241C68.927 58.9209 68.8175 59.4557 68.8175 59.996C68.8175 60.5364 68.927 61.0711 69.1394 61.568C69.3517 62.0648 69.6626 62.5135 70.0532 62.887C70.4437 63.2604 70.9059 63.5509 71.4118 63.7408C71.9178 63.9307 72.4569 64.0162 72.9968 63.992C74.0258 63.946 74.9974 63.5048 75.7092 62.7605C76.4211 62.0161 76.8184 61.0259 76.8184 59.996C76.8184 58.9661 76.4211 57.9759 75.7092 57.2315C74.9974 56.4872 74.0258 56.0461 72.9968 56ZM73.0088 44.008C69.6724 44.008 66.5761 45.028 64.0078 46.772L68.3683 51.132C69.7524 50.412 71.3286 50 72.9968 50C74.681 50 76.2692 50.416 77.6613 51.152L82.0298 46.788C79.3727 44.9716 76.2276 44.0024 73.0088 44.008Z" fill="#06BDE6"/>
</g>
<defs>
<filter id="filter0_d" x="0" y="26" width="130" height="123" filterUnits="userSpaceOnUse" color-interpolation-filters="sRGB">
<feFlood flood-opacity="0" result="BackgroundImageFix"/>
<feColorMatrix in="SourceAlpha" type="matrix" values="0 0 0 0 0 0 0 0 0 0 0 0 0 0 0 0 0 0 127 0" result="hardAlpha"/>
<feOffset dy="32"/>
<feGaussianBlur stdDeviation="11.5"/>
<feComposite in2="hardAlpha" operator="out"/>
<feColorMatrix type="matrix" values="0 0 0 0 0 0 0 0 0 0 0 0 0 0 0 0 0 0 0.09 0"/>
<feBlend mode="normal" in2="BackgroundImageFix" result="effect1_dropShadow"/>
<feBlend mode="normal" in="SourceGraphic" in2="effect1_dropShadow" result="shape"/>
</filter>
<linearGradient id="paint0_linear" x1="65" y1="0" x2="65" y2="120" gradientUnits="userSpaceOnUse">
<stop stop-color="#F98702"/>
<stop offset="1" stop-color="#F98702" stop-opacity="0"/>
</linearGradient>
</defs>
</svg>
