<svg width="802" height="364" viewBox="0 0 802 364" fill="none" xmlns="http://www.w3.org/2000/svg">
<path d="M160.2 75.5V122.3H75.6V159.5H138V204.2H75.6V287H16.8V75.5H160.2ZM318.764 252.5H243.764L232.364 287H170.564L247.664 75.5H315.464L392.264 287H330.164L318.764 252.5ZM304.064 207.5L281.264 139.1L258.764 207.5H304.064ZM556.329 322.4L532.929 287.3C526.329 288.5 519.629 289.1 512.829 289.1C493.029 289.1 474.829 284.5 458.229 275.3C441.629 265.9 428.429 253 418.629 236.6C409.029 220 404.229 201.3 404.229 180.5C404.229 159.7 409.029 141.1 418.629 124.7C428.429 108.1 441.629 95.2 458.229 86C474.829 76.8 493.029 72.2 512.829 72.2C532.829 72.2 551.029 76.8 567.429 86C584.029 95.2 597.129 108.1 606.729 124.7C616.329 141.1 621.129 159.7 621.129 180.5C621.129 197.9 617.629 214 610.629 228.8C603.629 243.4 594.029 255.6 581.829 265.4L626.529 322.4H556.329ZM464.229 180.5C464.229 197.1 468.529 210.3 477.129 220.1C485.729 229.7 497.629 234.5 512.829 234.5C527.829 234.5 539.629 229.6 548.229 219.8C557.029 210 561.429 196.9 561.429 180.5C561.429 163.7 557.029 150.5 548.229 140.9C539.629 131.1 527.829 126.2 512.829 126.2C497.629 126.2 485.729 131.1 477.129 140.9C468.529 150.5 464.229 163.7 464.229 180.5ZM719.555 289.1C704.355 289.1 690.755 286.6 678.755 281.6C666.955 276.4 657.555 269.4 650.555 260.6C643.755 251.6 639.955 241.5 639.155 230.3H696.155C696.955 235.7 699.455 239.9 703.655 242.9C707.855 245.9 713.055 247.4 719.255 247.4C724.055 247.4 727.855 246.4 730.655 244.4C733.455 242.4 734.855 239.8 734.855 236.6C734.855 232.4 732.555 229.3 727.955 227.3C723.355 225.3 715.755 223.1 705.155 220.7C693.155 218.3 683.155 215.6 675.155 212.6C667.155 209.6 660.155 204.7 654.155 197.9C648.355 191.1 645.455 181.9 645.455 170.3C645.455 160.3 648.155 151.3 653.555 143.3C658.955 135.1 666.855 128.6 677.255 123.8C687.855 119 700.555 116.6 715.355 116.6C737.355 116.6 754.655 122 767.255 132.8C779.855 143.6 787.155 157.8 789.155 175.4H736.055C735.055 170 732.655 165.9 728.855 163.1C725.255 160.1 720.355 158.6 714.155 158.6C709.355 158.6 705.655 159.5 703.055 161.3C700.655 163.1 699.455 165.6 699.455 168.8C699.455 172.8 701.755 175.9 706.355 178.1C710.955 180.1 718.355 182.2 728.555 184.4C740.755 187 750.855 189.9 758.855 193.1C767.055 196.3 774.155 201.5 780.155 208.7C786.355 215.7 789.455 225.3 789.455 237.5C789.455 247.3 786.555 256.1 780.755 263.9C775.155 271.7 767.055 277.9 756.455 282.5C746.055 286.9 733.755 289.1 719.555 289.1Z" fill="#F98702"/>
<path d="M31.908 296.285V299.726H20.993V307.311H29.503V310.752H20.993V322H16.775V296.285H31.908ZM40.035 304.573C40.6517 303.537 41.4657 302.735 42.477 302.168C43.513 301.576 44.734 301.28 46.14 301.28V305.646H45.067C43.4143 305.646 42.1563 306.065 41.293 306.904C40.4543 307.743 40.035 309.198 40.035 311.27V322H35.817V301.613H40.035V304.573ZM68.7022 311.307C68.7022 312.072 68.6529 312.762 68.5542 313.379H52.9772C53.1005 315.007 53.7049 316.314 54.7902 317.301C55.8755 318.288 57.2075 318.781 58.7862 318.781C61.0555 318.781 62.6589 317.831 63.5962 315.932H68.1472C67.5305 317.807 66.4082 319.348 64.7802 320.557C63.1769 321.741 61.1789 322.333 58.7862 322.333C56.8375 322.333 55.0862 321.901 53.5322 321.038C52.0029 320.15 50.7942 318.917 49.9062 317.338C49.0429 315.735 48.6112 313.885 48.6112 311.788C48.6112 309.691 49.0305 307.854 49.8692 306.275C50.7325 304.672 51.9289 303.438 53.4582 302.575C55.0122 301.712 56.7882 301.28 58.7862 301.28C60.7102 301.28 62.4245 301.699 63.9292 302.538C65.4339 303.377 66.6055 304.561 67.4442 306.09C68.2829 307.595 68.7022 309.334 68.7022 311.307ZM64.2992 309.975C64.2745 308.421 63.7195 307.175 62.6342 306.238C61.5489 305.301 60.2045 304.832 58.6012 304.832C57.1459 304.832 55.9002 305.301 54.8642 306.238C53.8282 307.151 53.2115 308.396 53.0142 309.975H64.2992ZM71.4471 311.714C71.4471 309.667 71.8665 307.854 72.7051 306.275C73.5685 304.696 74.7278 303.475 76.1831 302.612C77.6631 301.724 79.3035 301.28 81.1041 301.28C82.6828 301.28 84.0765 301.601 85.2851 302.242C86.5185 302.883 87.4681 303.66 88.1341 304.573V301.613H92.3891V331.694H88.1341V319.04C87.4681 319.953 86.5061 320.73 85.2481 321.371C83.9901 322.012 82.5595 322.333 80.9561 322.333C79.2048 322.333 77.6015 321.889 76.1461 321.001C74.7155 320.088 73.5685 318.83 72.7051 317.227C71.8665 315.599 71.4471 313.761 71.4471 311.714ZM88.1341 311.788C88.1341 310.382 87.8381 309.161 87.2461 308.125C86.6788 307.089 85.9265 306.3 84.9891 305.757C84.0518 305.214 83.0405 304.943 81.9551 304.943C80.8698 304.943 79.8585 305.214 78.9211 305.757C77.9838 306.275 77.2191 307.052 76.6271 308.088C76.0598 309.099 75.7761 310.308 75.7761 311.714C75.7761 313.12 76.0598 314.353 76.6271 315.414C77.2191 316.475 77.9838 317.289 78.9211 317.856C79.8831 318.399 80.8945 318.67 81.9551 318.67C83.0405 318.67 84.0518 318.399 84.9891 317.856C85.9265 317.313 86.6788 316.524 87.2461 315.488C87.8381 314.427 88.1341 313.194 88.1341 311.788ZM116.392 301.613V322H112.174V319.595C111.508 320.434 110.633 321.1 109.547 321.593C108.487 322.062 107.352 322.296 106.143 322.296C104.54 322.296 103.097 321.963 101.814 321.297C100.556 320.631 99.5573 319.644 98.8173 318.337C98.102 317.03 97.7443 315.451 97.7443 313.601V301.613H101.925V312.972C101.925 314.797 102.382 316.203 103.294 317.19C104.207 318.152 105.453 318.633 107.031 318.633C108.61 318.633 109.856 318.152 110.768 317.19C111.706 316.203 112.174 314.797 112.174 312.972V301.613H116.392ZM140.643 311.307C140.643 312.072 140.593 312.762 140.495 313.379H124.918C125.041 315.007 125.645 316.314 126.731 317.301C127.816 318.288 129.148 318.781 130.727 318.781C132.996 318.781 134.599 317.831 135.537 315.932H140.088C139.471 317.807 138.349 319.348 136.721 320.557C135.117 321.741 133.119 322.333 130.727 322.333C128.778 322.333 127.027 321.901 125.473 321.038C123.943 320.15 122.735 318.917 121.847 317.338C120.983 315.735 120.552 313.885 120.552 311.788C120.552 309.691 120.971 307.854 121.81 306.275C122.673 304.672 123.869 303.438 125.399 302.575C126.953 301.712 128.729 301.28 130.727 301.28C132.651 301.28 134.365 301.699 135.87 302.538C137.374 303.377 138.546 304.561 139.385 306.09C140.223 307.595 140.643 309.334 140.643 311.307ZM136.24 309.975C136.215 308.421 135.66 307.175 134.575 306.238C133.489 305.301 132.145 304.832 130.542 304.832C129.086 304.832 127.841 305.301 126.805 306.238C125.769 307.151 125.152 308.396 124.955 309.975H136.24ZM155.08 301.28C156.683 301.28 158.114 301.613 159.372 302.279C160.654 302.945 161.653 303.932 162.369 305.239C163.084 306.546 163.442 308.125 163.442 309.975V322H159.261V310.604C159.261 308.779 158.804 307.385 157.892 306.423C156.979 305.436 155.733 304.943 154.155 304.943C152.576 304.943 151.318 305.436 150.381 306.423C149.468 307.385 149.012 308.779 149.012 310.604V322H144.794V301.613H149.012V303.944C149.702 303.105 150.578 302.452 151.639 301.983C152.724 301.514 153.871 301.28 155.08 301.28ZM173.743 305.054V316.339C173.743 317.104 173.916 317.659 174.261 318.004C174.631 318.325 175.248 318.485 176.111 318.485H178.701V322H175.371C173.472 322 172.016 321.556 171.005 320.668C169.994 319.78 169.488 318.337 169.488 316.339V305.054H167.083V301.613H169.488V296.544H173.743V301.613H178.701V305.054H173.743ZM186.806 294.62V322H182.588V294.62H186.806ZM210.696 301.613L198.19 331.583H193.824L197.968 321.667L189.939 301.613H194.638L200.373 317.153L206.33 301.613H210.696ZM238.994 316.746H228.227L226.377 322H221.974L231.187 296.248H236.071L245.284 322H240.844L238.994 316.746ZM237.81 313.305L233.629 301.354L229.411 313.305H237.81ZM256.69 322.333C255.086 322.333 253.643 322.049 252.361 321.482C251.103 320.89 250.104 320.101 249.364 319.114C248.624 318.103 248.229 316.98 248.18 315.747H252.546C252.62 316.61 253.027 317.338 253.767 317.93C254.531 318.497 255.481 318.781 256.616 318.781C257.8 318.781 258.712 318.559 259.354 318.115C260.02 317.646 260.353 317.054 260.353 316.339C260.353 315.574 259.983 315.007 259.243 314.637C258.527 314.267 257.38 313.86 255.802 313.416C254.272 312.997 253.027 312.59 252.065 312.195C251.103 311.8 250.264 311.196 249.549 310.382C248.858 309.568 248.513 308.495 248.513 307.163C248.513 306.078 248.833 305.091 249.475 304.203C250.116 303.29 251.029 302.575 252.213 302.057C253.421 301.539 254.803 301.28 256.357 301.28C258.675 301.28 260.538 301.872 261.944 303.056C263.374 304.215 264.139 305.806 264.238 307.829H260.02C259.946 306.916 259.576 306.189 258.91 305.646C258.244 305.103 257.343 304.832 256.209 304.832C255.099 304.832 254.248 305.042 253.656 305.461C253.064 305.88 252.768 306.435 252.768 307.126C252.768 307.669 252.965 308.125 253.36 308.495C253.754 308.865 254.235 309.161 254.803 309.383C255.37 309.58 256.209 309.839 257.319 310.16C258.799 310.555 260.007 310.962 260.945 311.381C261.907 311.776 262.733 312.368 263.424 313.157C264.114 313.946 264.472 314.995 264.497 316.302C264.497 317.461 264.176 318.497 263.535 319.41C262.893 320.323 261.981 321.038 260.797 321.556C259.637 322.074 258.268 322.333 256.69 322.333ZM277.12 311.825L286.518 322H280.82L273.272 313.231V322H269.054V294.62H273.272V310.53L280.672 301.613H286.518L277.12 311.825ZM308.227 311.307C308.227 312.072 308.177 312.762 308.079 313.379H292.502C292.625 315.007 293.229 316.314 294.315 317.301C295.4 318.288 296.732 318.781 298.311 318.781C300.58 318.781 302.183 317.831 303.121 315.932H307.672C307.055 317.807 305.933 319.348 304.305 320.557C302.701 321.741 300.703 322.333 298.311 322.333C296.362 322.333 294.611 321.901 293.057 321.038C291.527 320.15 290.319 318.917 289.431 317.338C288.567 315.735 288.136 313.885 288.136 311.788C288.136 309.691 288.555 307.854 289.394 306.275C290.257 304.672 291.453 303.438 292.983 302.575C294.537 301.712 296.313 301.28 298.311 301.28C300.235 301.28 301.949 301.699 303.454 302.538C304.958 303.377 306.13 304.561 306.969 306.09C307.807 307.595 308.227 309.334 308.227 311.307ZM303.824 309.975C303.799 308.421 303.244 307.175 302.159 306.238C301.073 305.301 299.729 304.832 298.126 304.832C296.67 304.832 295.425 305.301 294.389 306.238C293.353 307.151 292.736 308.396 292.539 309.975H303.824ZM310.972 311.714C310.972 309.667 311.391 307.854 312.23 306.275C313.093 304.696 314.252 303.475 315.708 302.612C317.188 301.724 318.828 301.28 320.629 301.28C321.961 301.28 323.268 301.576 324.551 302.168C325.858 302.735 326.894 303.5 327.659 304.462V294.62H331.914V322H327.659V318.929C326.968 319.916 326.006 320.73 324.773 321.371C323.564 322.012 322.17 322.333 320.592 322.333C318.816 322.333 317.188 321.889 315.708 321.001C314.252 320.088 313.093 318.83 312.23 317.227C311.391 315.599 310.972 313.761 310.972 311.714ZM327.659 311.788C327.659 310.382 327.363 309.161 326.771 308.125C326.203 307.089 325.451 306.3 324.514 305.757C323.576 305.214 322.565 304.943 321.48 304.943C320.394 304.943 319.383 305.214 318.446 305.757C317.508 306.275 316.744 307.052 316.152 308.088C315.584 309.099 315.301 310.308 315.301 311.714C315.301 313.12 315.584 314.353 316.152 315.414C316.744 316.475 317.508 317.289 318.446 317.856C319.408 318.399 320.419 318.67 321.48 318.67C322.565 318.67 323.576 318.399 324.514 317.856C325.451 317.313 326.203 316.524 326.771 315.488C327.363 314.427 327.659 313.194 327.659 311.788ZM366.971 326.662L362.457 321.778C361.347 322.099 360.126 322.259 358.794 322.259C356.401 322.259 354.194 321.704 352.171 320.594C350.173 319.459 348.582 317.893 347.398 315.895C346.239 313.872 345.659 311.603 345.659 309.087C345.659 306.571 346.239 304.314 347.398 302.316C348.582 300.318 350.173 298.764 352.171 297.654C354.194 296.519 356.401 295.952 358.794 295.952C361.211 295.952 363.419 296.519 365.417 297.654C367.44 298.764 369.031 300.318 370.19 302.316C371.349 304.314 371.929 306.571 371.929 309.087C371.929 311.455 371.411 313.601 370.375 315.525C369.364 317.424 367.958 318.954 366.157 320.113L372.336 326.662H366.971ZM349.988 309.087C349.988 310.986 350.358 312.664 351.098 314.119C351.863 315.55 352.911 316.66 354.243 317.449C355.575 318.214 357.092 318.596 358.794 318.596C360.496 318.596 362.013 318.214 363.345 317.449C364.677 316.66 365.713 315.55 366.453 314.119C367.218 312.664 367.6 310.986 367.6 309.087C367.6 307.188 367.218 305.523 366.453 304.092C365.713 302.661 364.677 301.564 363.345 300.799C362.013 300.034 360.496 299.652 358.794 299.652C357.092 299.652 355.575 300.034 354.243 300.799C352.911 301.564 351.863 302.661 351.098 304.092C350.358 305.523 349.988 307.188 349.988 309.087ZM394.651 301.613V322H390.433V319.595C389.767 320.434 388.891 321.1 387.806 321.593C386.745 322.062 385.611 322.296 384.402 322.296C382.799 322.296 381.356 321.963 380.073 321.297C378.815 320.631 377.816 319.644 377.076 318.337C376.361 317.03 376.003 315.451 376.003 313.601V301.613H380.184V312.972C380.184 314.797 380.64 316.203 381.553 317.19C382.466 318.152 383.711 318.633 385.29 318.633C386.869 318.633 388.114 318.152 389.027 317.19C389.964 316.203 390.433 314.797 390.433 312.972V301.613H394.651ZM418.901 311.307C418.901 312.072 418.852 312.762 418.753 313.379H403.176C403.3 315.007 403.904 316.314 404.989 317.301C406.075 318.288 407.407 318.781 408.985 318.781C411.255 318.781 412.858 317.831 413.795 315.932H418.346C417.73 317.807 416.607 319.348 414.979 320.557C413.376 321.741 411.378 322.333 408.985 322.333C407.037 322.333 405.285 321.901 403.731 321.038C402.202 320.15 400.993 318.917 400.105 317.338C399.242 315.735 398.81 313.885 398.81 311.788C398.81 309.691 399.23 307.854 400.068 306.275C400.932 304.672 402.128 303.438 403.657 302.575C405.211 301.712 406.987 301.28 408.985 301.28C410.909 301.28 412.624 301.699 414.128 302.538C415.633 303.377 416.805 304.561 417.643 306.09C418.482 307.595 418.901 309.334 418.901 311.307ZM414.498 309.975C414.474 308.421 413.919 307.175 412.833 306.238C411.748 305.301 410.404 304.832 408.8 304.832C407.345 304.832 406.099 305.301 405.063 306.238C404.027 307.151 403.411 308.396 403.213 309.975H414.498ZM430.452 322.333C428.849 322.333 427.406 322.049 426.123 321.482C424.865 320.89 423.866 320.101 423.126 319.114C422.386 318.103 421.992 316.98 421.942 315.747H426.308C426.382 316.61 426.789 317.338 427.529 317.93C428.294 318.497 429.244 318.781 430.378 318.781C431.562 318.781 432.475 318.559 433.116 318.115C433.782 317.646 434.115 317.054 434.115 316.339C434.115 315.574 433.745 315.007 433.005 314.637C432.29 314.267 431.143 313.86 429.564 313.416C428.035 312.997 426.789 312.59 425.827 312.195C424.865 311.8 424.027 311.196 423.311 310.382C422.621 309.568 422.275 308.495 422.275 307.163C422.275 306.078 422.596 305.091 423.237 304.203C423.879 303.29 424.791 302.575 425.975 302.057C427.184 301.539 428.565 301.28 430.119 301.28C432.438 301.28 434.3 301.872 435.706 303.056C437.137 304.215 437.902 305.806 438 307.829H433.782C433.708 306.916 433.338 306.189 432.672 305.646C432.006 305.103 431.106 304.832 429.971 304.832C428.861 304.832 428.01 305.042 427.418 305.461C426.826 305.88 426.53 306.435 426.53 307.126C426.53 307.669 426.728 308.125 427.122 308.495C427.517 308.865 427.998 309.161 428.565 309.383C429.133 309.58 429.971 309.839 431.081 310.16C432.561 310.555 433.77 310.962 434.707 311.381C435.669 311.776 436.496 312.368 437.186 313.157C437.877 313.946 438.235 314.995 438.259 316.302C438.259 317.461 437.939 318.497 437.297 319.41C436.656 320.323 435.743 321.038 434.559 321.556C433.4 322.074 432.031 322.333 430.452 322.333ZM447.738 305.054V316.339C447.738 317.104 447.911 317.659 448.256 318.004C448.626 318.325 449.243 318.485 450.106 318.485H452.696V322H449.366C447.467 322 446.011 321.556 445 320.668C443.989 319.78 443.483 318.337 443.483 316.339V305.054H441.078V301.613H443.483V296.544H447.738V301.613H452.696V305.054H447.738ZM458.73 298.912C457.965 298.912 457.324 298.653 456.806 298.135C456.288 297.617 456.029 296.976 456.029 296.211C456.029 295.446 456.288 294.805 456.806 294.287C457.324 293.769 457.965 293.51 458.73 293.51C459.47 293.51 460.099 293.769 460.617 294.287C461.135 294.805 461.394 295.446 461.394 296.211C461.394 296.976 461.135 297.617 460.617 298.135C460.099 298.653 459.47 298.912 458.73 298.912ZM460.802 301.613V322H456.584V301.613H460.802ZM475.182 322.333C473.258 322.333 471.519 321.901 469.965 321.038C468.411 320.15 467.19 318.917 466.302 317.338C465.414 315.735 464.97 313.885 464.97 311.788C464.97 309.716 465.427 307.878 466.339 306.275C467.252 304.672 468.498 303.438 470.076 302.575C471.655 301.712 473.419 301.28 475.367 301.28C477.316 301.28 479.08 301.712 480.658 302.575C482.237 303.438 483.483 304.672 484.395 306.275C485.308 307.878 485.764 309.716 485.764 311.788C485.764 313.86 485.296 315.698 484.358 317.301C483.421 318.904 482.138 320.15 480.51 321.038C478.907 321.901 477.131 322.333 475.182 322.333ZM475.182 318.67C476.268 318.67 477.279 318.411 478.216 317.893C479.178 317.375 479.955 316.598 480.547 315.562C481.139 314.526 481.435 313.268 481.435 311.788C481.435 310.308 481.152 309.062 480.584 308.051C480.017 307.015 479.265 306.238 478.327 305.72C477.39 305.202 476.379 304.943 475.293 304.943C474.208 304.943 473.197 305.202 472.259 305.72C471.347 306.238 470.619 307.015 470.076 308.051C469.534 309.062 469.262 310.308 469.262 311.788C469.262 313.983 469.817 315.685 470.927 316.894C472.062 318.078 473.48 318.67 475.182 318.67ZM500.22 301.28C501.824 301.28 503.254 301.613 504.512 302.279C505.795 302.945 506.794 303.932 507.509 305.239C508.225 306.546 508.582 308.125 508.582 309.975V322H504.401V310.604C504.401 308.779 503.945 307.385 503.032 306.423C502.12 305.436 500.874 304.943 499.295 304.943C497.717 304.943 496.459 305.436 495.521 306.423C494.609 307.385 494.152 308.779 494.152 310.604V322H489.934V301.613H494.152V303.944C494.843 303.105 495.719 302.452 496.779 301.983C497.865 301.514 499.012 301.28 500.22 301.28ZM521.363 322.333C519.759 322.333 518.316 322.049 517.034 321.482C515.776 320.89 514.777 320.101 514.037 319.114C513.297 318.103 512.902 316.98 512.853 315.747H517.219C517.293 316.61 517.7 317.338 518.44 317.93C519.204 318.497 520.154 318.781 521.289 318.781C522.473 318.781 523.385 318.559 524.027 318.115C524.693 317.646 525.026 317.054 525.026 316.339C525.026 315.574 524.656 315.007 523.916 314.637C523.2 314.267 522.053 313.86 520.475 313.416C518.945 312.997 517.7 312.59 516.738 312.195C515.776 311.8 514.937 311.196 514.222 310.382C513.531 309.568 513.186 308.495 513.186 307.163C513.186 306.078 513.506 305.091 514.148 304.203C514.789 303.29 515.702 302.575 516.886 302.057C518.094 301.539 519.476 301.28 521.03 301.28C523.348 301.28 525.211 301.872 526.617 303.056C528.047 304.215 528.812 305.806 528.911 307.829H524.693C524.619 306.916 524.249 306.189 523.583 305.646C522.917 305.103 522.016 304.832 520.882 304.832C519.772 304.832 518.921 305.042 518.329 305.461C517.737 305.88 517.441 306.435 517.441 307.126C517.441 307.669 517.638 308.125 518.033 308.495C518.427 308.865 518.908 309.161 519.476 309.383C520.043 309.58 520.882 309.839 521.992 310.16C523.472 310.555 524.68 310.962 525.618 311.381C526.58 311.776 527.406 312.368 528.097 313.157C528.787 313.946 529.145 314.995 529.17 316.302C529.17 317.461 528.849 318.497 528.208 319.41C527.566 320.323 526.654 321.038 525.47 321.556C524.31 322.074 522.941 322.333 521.363 322.333Z" fill="#06BDE6"/>
</svg>
